# xmcd
#
# Track frame offsets: 
#        150
#        6115
#        20861
#        41581
#        64710
#        91766
#        113083
#        130754
#        154581
#        172834
#        195245
#        212617
#        229137
#        245863
#        258647
#
# Disc length: 3559 seconds
#
# Revision: 0
# Processed by: cddbd v1.5.2PL0 Copyright (c) Steve Scherf et al.
# Submitted via: ExactAudioCopyFreeDBPlugin 1.0
#
DISCID=c00de50f
DTITLE=diverse - Storch Heinars Storchkraft Album
DYEAR=2011
DGENRE=Porn Groove
TTITLE0=Storchkraft  - Alte Kameraden
TTITLE1=Storchkraft  - Leibstandarte S.H.
TTITLE2=SonuVab!tch - Courage
TTITLE3=SonuVab!tch - Alive
TTITLE4=H.E.A.D.L.E.S.S. - What You Get
TTITLE5=H.E.A.D.L.E.S.S. - Out Of The Shadow
TTITLE6=Ostblock -  Lichtträger
TTITLE7=Ostblock - Ostblock
TTITLE8=SonuVab!tch - Skulletor
TTITLE9=SonuVab!tch - We Want Vengeance
TTITLE10=Beyond My Dying Soul - Beyond My Dying Soul
TTITLE11=Beyond My Dying Soul - Individuum
TTITLE12=Der Kommissar - Tribut
TTITLE13=Der Kommissar - Hier kommt der Storch
TTITLE14=Storchkraft  - Haselnuss
EXTD=
EXTT0=
EXTT1=
EXTT2=
EXTT3=
EXTT4=
EXTT5=
EXTT6=
EXTT7=
EXTT8=
EXTT9=
EXTT10=
EXTT11=
EXTT12=
EXTT13=
EXTT14=
PLAYORDER=
